<?xml version="1.0" standalone="no"?>
<!DOCTYPE svg PUBLIC "-//W3C//DTD SVG 20010904//EN"
 "http://www.w3.org/TR/2001/REC-SVG-20010904/DTD/svg10.dtd">
<svg version="1.0" xmlns="http://www.w3.org/2000/svg"
 width="140.000000pt" height="140.000000pt" viewBox="0 0 140.000000 140.000000"
 preserveAspectRatio="xMidYMid meet">
<metadata>
Created by potrace 1.11, written by Peter Selinger 2001-2013
</metadata>
<g transform="translate(0.000000,140.000000) scale(0.100000,-0.100000)"
fill="#000000" stroke="none">
<path d="M0 700 l0 -700 700 0 700 0 0 700 0 700 -700 0 -700 0 0 -700z m968
129 l3 -76 43 15 c98 36 168 -26 168 -149 0 -122 -96 -194 -192 -144 -17 9
-30 11 -30 5 0 -5 -13 -10 -30 -10 l-30 0 0 213 c0 118 3 217 7 221 4 4 19 6
33 4 24 -3 25 -6 28 -79z m-160 -58 c8 -4 12 -19 10 -32 -3 -22 -7 -24 -46
-21 -45 4 -83 -13 -114 -52 -14 -16 -18 -41 -18 -108 l0 -88 -30 0 -30 0 0
150 0 150 25 0 c20 0 25 -5 25 -27 0 -24 1 -25 18 -10 42 38 128 59 160 38z
m-343 -361 l0 -25 -148 -3 c-125 -2 -148 0 -153 13 -4 8 -4 22 0 30 5 13 28
15 153 13 l148 -3 0 -25z"/>
<path d="M993 703 c-20 -14 -23 -24 -23 -89 0 -62 3 -75 19 -84 22 -11 61 -13
86 -4 24 9 45 58 45 102 0 77 -67 117 -127 75z"/>
</g>
</svg>
